Coordinates
version=1
nRows=5
nColumns=50
inDegrees=yes

Units are S.I. units (second, meters, Newtons, ...)
If the header above contains a line with 'inDegrees', this indicates whether rotational values are in degrees (yes) or radians (no).

endheader
time	pelvis_tilt	pelvis_list	pelvis_rotation	pelvis_tx	pelvis_ty	pelvis_tz	hip_flexion_r	hip_adduction_r	hip_rotation_r	knee_angle_r	knee_angle_r_beta	ankle_angle_r	subtalar_angle_r	mtp_angle_r	hip_flexion_l	hip_adduction_l	hip_rotation_l	knee_angle_l	knee_angle_l_beta	socket_flexion	socket_adduction	socket_rotation	socket_tx	socket_ty	socket_tz	pros_ankle_rx	pros_ankle_ry	pros_ankle_rz	pros_ankle_tx	pros_ankle_ty	pros_ankle_tz	foot_flex	lumbar_extension	lumbar_bending	lumbar_rotation	arm_flex_r	arm_add_r	arm_rot_r	elbow_flex_r	pro_sup_r	wrist_flex_r	wrist_dev_r	arm_flex_l	arm_add_l	arm_rot_l	elbow_flex_l	pro_sup_l	wrist_flex_l	wrist_dev_l
      0.00000000	     -3.59819741	     -8.66208748	     -8.84731768	     -0.79616800	      1.03501132	      0.36427356	    -17.55274748	      8.20096710	     11.45780641	      1.87794656	      0.03277635	      2.13146591	      0.00000000	      0.00000000	     23.13595000	    -10.29043660	     -0.00175663	      2.28168470	      0.03982291	     -0.22154907	      0.88716663	      4.21151343	      0.00000000	      0.00000000	      0.00000000	      0.00000000	      0.00000000	      0.00000000	      0.00000000	      0.00000000	      0.00000000	     11.47464625	    -17.37675256	      6.53406065	     17.63742788	      0.00000000	    -12.41149658	      0.00000000	     75.61902206	     89.44438462	      0.00000000	      0.00000000	      0.00000000	    -12.41149658	      0.00000000	     75.61902206	     89.44438462	      0.00000000	      0.00000000
      0.00418120	     -3.61570777	     -8.67839621	     -8.91623367	     -0.79135502	      1.03422418	      0.36430199	    -17.77846886	      8.14892464	     11.47935626	      1.94266375	      0.03390588	      2.12016635	      0.00000000	      0.00000000	     23.22267399	    -10.28890043	     -0.01104189	      2.38264372	      0.04158498	     -0.43435033	      0.87883906	      4.24607989	      0.00000000	      0.00000000	      0.00000000	      0.00000000	      0.00000000	      0.00000000	      0.00000000	      0.00000000	      0.00000000	     11.22314009	    -17.33745808	      6.50022313	     17.63691822	      0.00000000	    -12.41173460	      0.00000000	     75.61891073	     89.44445407	      0.00000000	      0.00000000	      0.00000000	    -12.41173460	      0.00000000	     75.61891073	     89.44445407	      0.00000000	      0.00000000
      0.00836240	     -3.65056115	     -8.64922562	     -9.00068933	     -0.78642759	      1.03338457	      0.36425388	    -17.98797751	      8.03923752	     11.59070310	      2.01395707	      0.03515018	      2.13956265	      0.00000000	      0.00000000	     23.33478189	    -10.20731843	      0.03665888	      2.50528537	      0.04372548	     -0.66051833	      0.95952439	      4.32991429	      0.00000000	      0.00000000	      0.00000000	      0.00000000	      0.00000000	      0.00000000	      0.00000000	      0.00000000	      0.00000000	     10.91093946	    -17.34346507	      6.37318825	     17.64548411	      0.00000000	    -12.41237671	      0.00000000	     75.61861021	     89.44464149	      0.00000000	      0.00000000	      0.00000000	    -12.41237671	      0.00000000	     75.61861021	     89.44464149	      0.00000000	      0.00000000
      0.01254400	     -3.67558292	     -8.64907094	     -9.08807030	     -0.78124452	      1.03253797	      0.36432695	    -18.23137453	      7.95581722	     11.61339333	      2.08063635	      0.03631395	      2.13706860	      0.00000000	      0.00000000	     23.42870090	    -10.19297043	      0.03260473	      2.63054258	      0.04591163	     -0.90306489	      0.96826642	      4.39054336	      0.00000000	      0.00000000	      0.00000000	      0.00000000	      0.00000000	      0.00000000	      0.00000000	      0.00000000	      0.00000000	     10.64332653	    -17.30559150	      6.32320014	     17.64878267	      0.00000000	    -12.41258386	      0.00000000	     75.61851336	     89.44470192	      0.00000000	      0.00000000	      0.00000000	    -12.41258386	      0.00000000	     75.61851336	     89.44470192	      0.00000000	      0.00000000
      0.01672500	     -3.72326784	     -8.52602503	     -9.17108800	     -0.77613793	      1.03163977	      0.36420823	    -18.41886641	      7.74220324	     11.81814783	      2.15364064	      0.03758812	      2.21283605	      0.00000000	      0.00000000	     23.59473576	     -9.94928985	      0.10871995	      2.83640739	      0.04950465	     -1.15323562	      1.21066606	      4.62487366	      0.00000000	      0.00000000	      0.00000000	      0.00000000	      0.00000000	      0.00000000	      0.00000000	      0.00000000	      0.00000000	     10.29569541	    -17.34468476	      6.00043155	     17.68122839	      0.00000000	    -12.41379402	      0.00000000	     75.61794709	     89.44505511	      0.00000000	      0.00000000	      0.00000000	    -12.41379402	      0.00000000	     75.61794709	     89.44505511	      0.00000000	      0.00000000
